# xmcd CD database file
#
# Track frame offsets:
#	187
#	12975
#	24477
#	38407
#	53935
#	67235
#	82675
#	95000
#	106467
#	118520
#	132385
#	144655
#
# Disc length: 2092 seconds
#
# Revision: 2
# Processed by: cddbd v1.5PL3 Copyright (c) Steve Scherf et al.
# Submitted via: CDex 1.50
#
DISCID=9f082a0c
DTITLE=Muddy Waters - They Call Me Muddy Waters
DYEAR=1971
DGENRE=Blues
TTITLE0=When The Eagle Flies
TTITLE1=Crawlin' Kingsnake
TTITLE2=County Jail
TTITLE3=It's All Over
TTITLE4=Bird Nest On The Ground
TTITLE5=They Call Me Muddy Waters
TTITLE6=Find Yourself Another Fool
TTITLE7=Kinfolk's Blues
TTITLE8=Making Friends
TTITLE9=Blind Man
TTITLE10=Two Steps Forward
TTITLE11=Howlin' Wolf
EXTD=YEAR: 1971
EXTT0=
EXTT1=
EXTT2=
EXTT3=
EXTT4=
EXTT5=
EXTT6=
EXTT7=
EXTT8=
EXTT9=
EXTT10=
EXTT11=
PLAYORDER=
